<?xml version="1.0" encoding="utf-8"?>
<!-- Generator: Adobe Illustrator 26.2.1, SVG Export Plug-In . SVG Version: 6.00 Build 0)  -->
<svg version="1.1" id="Capa_1" xmlns="http://www.w3.org/2000/svg" xmlns:xlink="http://www.w3.org/1999/xlink" x="0px" y="0px"
	 viewBox="0 0 32 32" style="enable-background:new 0 0 32 32;" xml:space="preserve">
<style type="text/css">
	.st0{fill:#CC2334;}
	.st1{fill:#EF4B3F;}
</style>
<g>
	<g>
		<circle class="st0" cx="15.98" cy="16" r="15.83"/>
		<g>
			<path d="M7.14,10.7c-0.17-0.01-0.31,0.13-0.31,0.3c0,0.14,0.09,0.25,0.22,0.29c0.44,0.11,1.43,0.45,2.23,1.27
				c-0.66,0.45-1.1,1.22-1.1,2.08c0,1.39,1.13,2.52,2.52,2.52c1.39,0,2.52-1.13,2.52-2.52C13.23,11.27,8.43,10.77,7.14,10.7z"/>
			<path d="M24.81,10.7c-1.29,0.07-6.09,0.56-6.09,3.94c0,1.39,1.13,2.52,2.52,2.52c1.39,0,2.52-1.13,2.52-2.52
				c0-0.87-0.44-1.63-1.1-2.08c0.8-0.82,1.79-1.16,2.23-1.27c0.13-0.03,0.22-0.15,0.22-0.29C25.12,10.83,24.98,10.69,24.81,10.7z"/>
		</g>
		<path d="M20.32,24.29c-0.24,0-0.47-0.12-0.6-0.33c-0.05-0.08-1.3-1.98-3.74-1.98c-2.39,0-3.69,1.91-3.75,2
			c-0.22,0.33-0.66,0.42-0.99,0.2c-0.33-0.22-0.42-0.66-0.21-0.98c0.07-0.11,1.76-2.64,4.94-2.64c3.25,0,4.88,2.54,4.95,2.65
			c0.21,0.33,0.11,0.77-0.23,0.98C20.58,24.25,20.45,24.29,20.32,24.29z"/>
	</g>
</g>
<g>
	<g>
		<circle class="st1" cx="15.98" cy="16" r="15.85"/>
		<circle cx="10.7" cy="14.64" r="2.53"/>
		<circle cx="21.25" cy="14.64" r="2.53"/>
		<path d="M20.33,24.3c-0.24,0-0.47-0.12-0.6-0.33c-0.05-0.08-1.3-1.99-3.74-1.99c-2.42,0-3.74,1.98-3.75,2
			c-0.22,0.33-0.66,0.42-0.99,0.21c-0.33-0.22-0.42-0.66-0.21-0.99c0.07-0.11,1.76-2.64,4.95-2.64c3.26,0,4.89,2.55,4.95,2.65
			c0.21,0.33,0.11,0.78-0.23,0.98C20.59,24.26,20.45,24.3,20.33,24.3z"/>
	</g>
</g>
</svg>
